<svg xmlns="http://www.w3.org/2000/svg" xmlns:xlink="http://www.w3.org/1999/xlink" width="347" height="268" viewBox="0 0 347 268">
    <defs>
        <path id="o14vbuxc2a" d="M0 0H347V268H0z"/>
    </defs>
    <g fill="none" fill-rule="evenodd">
        <mask id="dxxw88g5ub" fill="#fff">
            <use xlink:href="#o14vbuxc2a"/>
        </mask>
        <path stroke="#979797" d="M0.5 0.5H346.5V267.5H0.5z"/>
        <g mask="url(#dxxw88g5ub)">
            <g>
                <path fill="#D1D8E0" fill-rule="nonzero" d="M95.767 149.599c93.112-26.109 173.43-133.55 214.174-45.752S265.074 278.17 117.196 241.87c-147.878-36.3-145.077-46.77-21.43-92.27z" opacity=".2" transform="translate(21.723 8)"/>
                <g>
                    <g>
                        <g>
                            <path fill="#F2E4DD" d="M9.25 8.229c.002 2.365 3.543 3.177 7.91 1.811 4.367-1.364 7.905-4.39 7.904-6.756-.002-2.365-3.544-3.176-7.91-1.81C12.787 2.837 9.25 5.862 9.25 8.228" transform="translate(21.723 8) translate(74.338) translate(9.641 182.931) translate(0 2.28)"/>
                            <path fill="#663929" d="M14.018 2.739c-1.134-.066-2.159.412-2.201.423.172-.266.347-.71.318-1.01-.025-.248-.054-.596-.296-.33-.49.045-.932.052-1.407.195l-.017.133c.219.145.845.136 1.38-.164-.229.525-.088.998-.337 1.342-.11.075-.213.308-.006.396.574.241 1.22.024 1.806-.136.461-.127.805-.848.76-.85M12.416 4.386h-.001c-.542-.295-1.043-.124-1.641.191-.362-.1-1.102.102-1.479.17-.7.128-1.326.19-1.842.746l.024.093c.49.07.986-.134 1.345-.496.702.12 1.514-.078 1.928-.256.465.252 1.304.133 1.72-.245.086-.078-.012-.212-.054-.203" transform="translate(21.723 8) translate(74.338) translate(9.641 182.931) translate(0 2.28)"/>
                            <path fill="#663929" d="M23.202.822c-3.027-1.514-7.892.943-9.38 2.333-.82.769-1.82 1.78-2.15 2.882-.304 1.023.238 1.91 1.277 2.118 1.168.234 2.5-.008 3.627-.327 1.27-.36 2.476-.936 3.6-1.62 1.033-.627 2.188-1.344 2.98-2.27.66-.77 1.46-2.41.046-3.116" transform="translate(21.723 8) translate(74.338) translate(9.641 182.931) translate(0 2.28)"/>
                            <path fill="#864A3B" d="M27.876 3.142c-.26 0-.916.119-1.39.326-1.134.495-2.313 1.38-2.392 1.537-.274-.128-.888-.247-1.176-.38-.442-.205-.889-.489-1.453-.293-.213.073-.248.193-.207.225.787.631 2.137.932 2.995.791.333-.055 1.818-.886 2.32-1.7-.05.016 1.005-.218 1.335-.258.24-.028.183-.248-.032-.248" transform="translate(21.723 8) translate(74.338) translate(9.641 182.931) translate(0 2.28)"/>
                            <path fill="#8C4F40" d="M23.107.226c-1.136-.387-2.52-.021-3.532.548-1.55.875-3.046 2.744-3.4 3.274.654.527 1.094.913 1.415 1.709 2.419-.08 5.066-1.27 6.45-3.321.592-.877-.012-1.896-.933-2.21" transform="translate(21.723 8) translate(74.338) translate(9.641 182.931) translate(0 2.28)"/>
                            <path fill="#9A584B" d="M21.515 0c-2.332.022-3.428.26-4.369.563-1.539.493-3.478 2.23-3.62 2.875.593-.187 1.084-.233 1.815.077.576-.641 1.503-.873 2.301-1.112.85-.255 1.714-.464 2.563-.727.637-.199 1.44-.47 2.026-1.128.13-.145.23-.557-.716-.548" transform="translate(21.723 8) translate(74.338) translate(9.641 182.931) translate(0 2.28)"/>
                            <path fill="#B8695C" d="M23.674.523c.113 1.326-.891 2.287-1.958 2.932-1.035.625-2.181.91-3.288 1.363l.004.016c1.294-.244 2.668-.79 3.75-1.54.786-.542 1.886-1.582 1.618-2.653l-.126-.118" transform="translate(21.723 8) translate(74.338) translate(9.641 182.931) translate(0 2.28)"/>
                            <path fill="#B8695C" d="M23.365.553c-.393 1.057-1.325 1.872-2.267 2.431-.933.554-1.959.934-2.988 1.268l.004.014c1.17-.246 2.292-.681 3.305-1.319.831-.52 1.809-1.358 2.032-2.37l-.086-.024" transform="translate(21.723 8) translate(74.338) translate(9.641 182.931) translate(0 2.28)"/>
                            <path fill="#B8695C" d="M23.167.25l-.008.01c-.51.881-1.539 1.514-2.421 1.939-.98.472-1.993.86-3.012 1.235l.008.033c1.112-.288 2.183-.72 3.213-1.225.819-.402 1.908-1.041 2.303-1.93l.004-.017-.087-.044" transform="translate(21.723 8) translate(74.338) translate(9.641 182.931) translate(0 2.28)"/>
                            <path fill="#864A3B" d="M17.92 5.1c-.153-.84-1.254-1.396-1.966-1.631-1.43-.471-2.175-.467-2.982.225-.692.594-1.51 1.64-1.107 2.494.548 1.168 2.01 1.14 2.98.945 2.062-.414 3.209-1.295 3.074-2.034" transform="translate(21.723 8) translate(74.338) translate(9.641 182.931) translate(0 2.28)"/>
                            <path fill="#764131" d="M14.117 5.85c-.639-.357-1.323-.636-2.032-.82-.54-.141-1.101-.157-1.358.427-.14.315-.184.665-.152 1.01-.028.34.033.68.241.978.357.508.96.734 1.537.892.511.14 1.121.322 1.64.113.53-.212.728-.835.82-1.35.114-.63-.164-.953-.696-1.25" transform="translate(21.723 8) translate(74.338) translate(9.641 182.931) translate(0 2.28)"/>
                            <path fill="#864A3B" d="M18.536 10.575c-.113-.471.114-1.642-.082-1.922-.222-.318-.467-.469-.607-.83-.094-.25-.19-.664-.372-.875-.172-.2-.215-.287-.471-.167-.36.165-.36.595-.142.99.281.507 1.048.61 1.344 1.09-.175.28-.002 1.37.086 1.714.061.242-.274.488-.308 1.222-.009.2.122.235.308.063.352-.324.43-.842.244-1.285M23.578 8.248c-1.064-.397-2.037-.513-2.994.113-.007-.456-.166-.982-.307-1.406-.119-.354-.256-.724-.554-.97-.148-.121-.473-.319-.665-.182-.266.187-.197.288.423 1.258.38.597.375.853.53 1.415.054.2.205.442.473.37.188-.049 1.962-.713 2.923-.476.243.636.434.755.434 1.435 0 .185.194.013.225-.058.234-.55.123-1.27-.488-1.499" transform="translate(21.723 8) translate(74.338) translate(9.641 182.931) translate(0 2.28)"/>
                            <path fill="#FFFFFE" d="M15.298 3.702c-.077-.274-.479-.313-.708-.305-1.152.041-1.742.668-2 1.11-.075.128-.169.375.05.442.095.031.165-.039.237-.078.286-.155.469-.36.786-.478.436-.162.922-.124 1.35-.277.175-.062.342-.21.285-.414M11.7 5.262c-.458-.275-.865.589-.592.762l.102-.02c.092-.2.236-.347.41-.507.073-.067.169-.181.08-.235" transform="translate(21.723 8) translate(74.338) translate(9.641 182.931) translate(0 2.28)"/>
                            <path fill="#663929" d="M14.524 13.36c-.999-1.572-.999-2.888-.999-4.605 0-.344.422-1.13.221-1.436-.126-.19-.353-.176-.52-.042-.252.205-.089.492-.05.776.117.836.027 1.61.08 2.419.061.927.393 2.014.86 2.825.75 1.305 2.017 2.519 3.586 2.519-2.245-.912-2.883-1.992-3.178-2.456M9.492 6.564c-1.026.285-2.102.4-3.163.398-1.112-.003-2.317-.14-3.366-.515C1.937 6.08.403 5.374 0 5c1.337 1.356 3.162 2.002 5.025 2.224 1.061.125 1.9.06 2.966.011.694-.03 1.577-.23 2.237-.425.316.06.829.08.924-.248.23-.799-1.29-.1-1.66.002" transform="translate(21.723 8) translate(74.338) translate(9.641 182.931) translate(0 2.28)"/>
                            <path fill="#522A21" d="M14.531 6.043c-.524-.625-1.56-.848-2.314-1.003l-.003.006c.563.256 1.195.406 1.728.722.954.57.69 1.416.485 2.312l.083.036c.332-.629.524-1.476.021-2.073M24.185 1.316l-.031.013c.304 1.224-1.164 2.247-2.048 2.852-.92.632-1.93.977-2.988 1.297l.024.086c1.292-.222 2.578-.9 3.598-1.704.603-.476 2.117-1.626 1.445-2.544M17.953 4.887c-.246-.755-1.436-1.44-2.184-1.49l-.003.025c.619.194 1.303.547 1.756 1.026.864.915-.095 1.594-.82 2.085l.017.041c.66-.258 1.502-.863 1.234-1.687" transform="translate(21.723 8) translate(74.338) translate(9.641 182.931) translate(0 2.28)"/>
                        </g>
                        <path fill="#663929" d="M16.845 2.953c-.435-.282-1.508-.366-2.074-.327.274-.134.713-.358.973-.521.236-.148.573-.316.728-.562.087-.139.097-.282.03-.432-.052-.116-.248-.691-.259-.94-.01-.235-.201-.176-.22-.125-.075.18-.161.372-.092.555.088.227.194.32.387.62-.236.044-.428.195-.52.275-.481.428-.992.724-1.424 1.21-.204.23.457.569.79.653.303.078 1.072.17 1.262.145.339-.046.624-.418.42-.551" transform="translate(21.723 8) translate(74.338) translate(9.641 182.931)"/>
                        <path fill="#B8695C" d="M20.98 2.321c-.53.415-.911.796-1.544 1.046-.537.214-1.095.362-1.65.52-.996.283-2.094.593-2.83 1.363l.019.025c1.014-.77 2.166-1.08 3.375-1.416.953-.266 2.085-.646 2.707-1.477l-.078-.06" transform="translate(21.723 8) translate(74.338) translate(9.641 182.931)"/>
                        <path fill="#B8695C" d="M20.99 2.293c-.466.318-.975.447-1.532.567-.634.14-1.259.315-1.87.531-1.176.416-2.33.972-3.331 1.717l.007.013c1.24-.703 2.491-1.336 3.857-1.762.614-.191 1.24-.312 1.863-.467.433-.108.864-.253 1.144-.61l-.138.01" transform="translate(21.723 8) translate(74.338) translate(9.641 182.931)"/>
                        <path fill="#522A21" d="M21.195 2.224c-1.298.057-2.72.152-3.966.536l.002.016c.856-.058 1.704-.227 2.558-.312.39-.04.78-.071 1.172-.095.439-.026 1.512-.166 1.188.633l.089.038c.493-.791-.479-.841-1.043-.816" transform="translate(21.723 8) translate(74.338) translate(9.641 182.931)"/>
                    </g>
                    <g>
                        <path fill="#F2E4DD" d="M2.88 9.015c.007 1.977 2.954 2.663 6.583 1.531 3.629-1.131 6.564-3.653 6.558-5.63-.006-1.977-2.954-2.663-6.582-1.532-3.63 1.132-6.566 3.652-6.56 5.63" transform="translate(21.723 8) translate(74.338) translate(0 221.404)"/>
                        <path fill="#3D2C2E" d="M8.35.002C8.286-.052 6.824.88 6.618 1.146 6.027 1.144 4.53.922 4.136.855c-.067-.012-.11.15 0 .203 1.06.515 1.974.382 2.52.277.425-.06 1.383-.71 1.636-1.057.003.24.076.62.204 1.04.147.477.254.979.717 1.17C9.298 2.521 8.5.126 8.35.001" transform="translate(21.723 8) translate(74.338) translate(0 221.404)"/>
                        <path fill="#453133" d="M7.548 3.242c-.068-.211-.913-1.736-1.065-2.184C6.414.856 6.365.902 6.34.922c-.52.438-.933.784-1.45 1.227-.343.293-1.076.894-1.12.957-.511.18-1.034.455-1.567.666-.408.16-.825.26-1.22.39l-.03.112c.106.168 1.14-.05 1.592-.235.424-.173 1.019-.375 1.242-.81.6-.271 1.056-.416 1.575-.817.269-.207.784-.798.925-1.095.092.779.515 1.875 1.226 2.056.075.019.058-.058.034-.131" transform="translate(21.723 8) translate(74.338) translate(0 221.404)"/>
                        <path fill="#453133" d="M6.31 4.52c-.248-.332-.566-.634-.86-.922-.274-.27-.569-.493-.955-.567-.037-.007-.083.213-.127.443-.245 1.318-1.576 2.345-1.752 2.874-.843.693-1.59 1.616-2.616 2.025.273.255 2.463-.425 2.712-1.865.651-.12 1.472-.816 1.78-1.412.211-.404.293-1.456.296-1.453.203.285.467.837.76 1.033.206.137.525.31.778.178.204-.106-.008-.367-.016-.334" transform="translate(21.723 8) translate(74.338) translate(0 221.404)"/>
                        <path fill="#764131" d="M13.664 2.96c-.017-.802-.31-1.683-.955-2.133L12.554.82c-.375-.005-.737.047-1.088.136.172.057.337.171.491.36.43.524.639 1.242.64 1.913.001.57-.14 1.23-.515 1.687.284-.026.567-.075.841-.145.544-.399.756-1.103.74-1.812M11.601 3.212c-.018-.823-.348-1.6-1.137-1.895l-.091.042c-.745.349-1.478.735-2.203 1.126-.493.302 1.136 2.016 2.143 2.288.17.046.345.082.524.108.563-.332.78-.999.764-1.67M15.622 1.949c-.004-.169-.01-.342-.154-.454-.23-.176-.64-.232-.91-.313l-.28-.08c.345.555.515 1.233.517 1.876 0 .283-.03.584-.1.878.546-.495.941-1.163.927-1.907" transform="translate(21.723 8) translate(74.338) translate(0 221.404)"/>
                        <path fill="#663929" d="M11.957 1.315c-.154-.188-.32-.302-.491-.359-.342.088-.675.213-1.002.361.79.295 1.119 1.072 1.137 1.895.015.67-.201 1.337-.764 1.67.405.06.826.072 1.245.034.374-.457.516-1.116.516-1.687-.002-.67-.21-1.389-.64-1.914M14.277 1.101C13.765.96 13.24.851 12.71.827c.645.45.938 1.33.955 2.132.015.709-.197 1.413-.74 1.812.354-.091.697-.218 1.01-.383.27-.14.529-.32.762-.532.07-.294.1-.595.099-.878-.002-.643-.172-1.32-.518-1.877M8.576 2.123c-.055-.013-.116-.027-.18-.04.283.171.501.43.555.769.137.852-1.086 1.666-1.823 1.705-.375.02-.771-.109-1.005-.415l-.08-.121c-.006.07-.01.142-.009.214.008 1.031 1.052 1.782 1.977 1.76 1.028-.023 1.856-.82 2.077-1.798.222-.982-.602-1.853-1.512-2.074" transform="translate(21.723 8) translate(74.338) translate(0 221.404)"/>
                        <path fill="#764131" d="M7.128 4.557c.737-.039 1.96-.853 1.823-1.705-.054-.339-.272-.598-.556-.77-.39-.08-.945-.127-1.449.262-.404.312-.834.94-.902 1.677l.079.12c.234.307.63.435 1.005.416M7.644 5.4c-.306-.172-.666-.207-.89.009-.12-.178-1.14-.54-1.138.873 0 .325.269.683.599.724-.889.935-2.103 2.456-2.656 3.61.705-.64 2.71-3.117 2.94-3.249.118.082.46.023.495-.208.32.078.567-.015.814-.486.213-.406.155-1.092-.164-1.272" transform="translate(21.723 8) translate(74.338) translate(0 221.404)"/>
                        <path fill="#8C4F40" d="M7.346 5.555c-.261-.271-.819.075-.717.775.048.326.457.47.7.18.2-.237.241-.722.017-.955M6.3 5.48c-.096-.145-.688-.148-.58.688.028.217.235.505.422.225.138-.208.312-.676.158-.912" transform="translate(21.723 8) translate(74.338) translate(0 221.404)"/>
                        <path fill="#FFFFFE" d="M6.066 5.536l-.08-.032c-.22.114-.24.429-.164.589.038.08.093.062.101.047l.025-.112c0-.081.01-.155.04-.23.037-.092.097-.16.078-.262M7.016 5.608l-.08-.033c-.22.114-.239.43-.164.59.038.08.093.062.102.047l.024-.113c.002-.08.01-.154.041-.23.036-.092.096-.158.077-.261" transform="translate(21.723 8) translate(74.338) translate(0 221.404)"/>
                        <path fill="#985648" d="M6.831 3.896c-.05 0-.104-.014-.157-.049-.144-.094-.184-.28-.148-.44.095-.423.535-.905.983-1.048.085-.027.178-.043.266-.043.196 0 .366.077.354.28-.033.57-.642.836-.952 1.122-.1.09-.219.178-.346.178M9.827 2.568c-.064 0-.122-.013-.171-.046-.46-.308.801-.952 1.075-1.077.239.142.424.337.56.567-.248.085-.49.185-.734.287-.168.07-.487.269-.73.269M12.26 1.784c-.084-.167-.185-.325-.303-.469-.058-.07-.118-.132-.18-.183.26-.044.56-.074.901-.074.099 0 .2.003.306.008.161.171.292.374.394.595-.372.048-.747.072-1.118.123" transform="translate(21.723 8) translate(74.338) translate(0 221.404)"/>
                        <path fill="#905243" d="M11.291 2.012c-.136-.23-.321-.425-.56-.567l.035-.016c.209-.088.545-.216 1.012-.297.061.051.12.112.18.183.117.144.218.302.302.469-.107.014-.213.031-.32.05-.222.044-.437.105-.649.178M13.378 1.66c-.102-.22-.233-.423-.394-.594.37.019.784.073 1.24.178l.04.1c-.158.281-.579.278-.86.313l-.026.004" transform="translate(21.723 8) translate(74.338) translate(0 221.404)"/>
                        <path fill="#522A21" d="M10.124 3.765l-.018-.002c-.101.478-.23.93-.535 1.322-.316.406-.716.6-1.162.825l.023.054c.953-.165 1.754-1.254 1.692-2.199" transform="translate(21.723 8) translate(74.338) translate(0 221.404)"/>
                        <path fill="#522A21" d="M9.37 4.276l-.034.013c.006.093.028.18.013.275-.012.084-.077.162-.072.245l.045.034c.091-.037.116-.167.126-.257.01-.106-.005-.23-.078-.31M9.633 3.79l-.019.007c-.023.082.01.178.005.264-.007.086-.072.181-.05.262l.045.02c.092-.04.1-.196.104-.282.003-.09-.004-.215-.085-.272M7.201 5.285l.002.011c.597-.012.77.554.667 1.05-.097.467-.392.774-.88.807l-.009.06c.582.123.956-.511 1.013-1.004.05-.44-.23-1.135-.793-.924M6.519 5.31c-.405-.314-.84.103-.901.512-.057.383-.02 1.184.555 1.116l.006-.042c-.44-.111-.506-.531-.48-.923.035-.489.319-.756.815-.656l.005-.007M15.606 1.968h-.014c-.08.423-.14.8-.365 1.178-.24.405-.59.75-.988 1.002-.829.529-1.736.595-2.674.767l.009.07c.995.004 2.14-.294 2.938-.9.608-.46 1.241-1.307 1.094-2.117" transform="translate(21.723 8) translate(74.338) translate(0 221.404)"/>
                        <path fill="#453133" d="M8.111 4.219c-.285.005.141.577.241 2.113.074 1.117-.064 2.254.005 3.077-.237 1.304-.872 2.392-1.448 3.306l.064.111c.659-.069 1.184-.934 1.414-1.481.245-.58.343-1.27.213-1.898.17-.132.246-.372.315-.58.147-.44.203-.908.195-1.37-.012-.634-.367-1.74-.595-2.358.07.057.351.523.6.683.146.096.503.354.673.175.18-.19-1.258-1.785-1.677-1.778" transform="translate(21.723 8) translate(74.338) translate(0 221.404)"/>
                        <path fill="#3D2C2E" d="M19.337 7.715c-1.2-.458-2.64-1.326-3.31-1.835-.602-.525-1.175-1.058-1.642-1.714-.206-.29-.393-.596-.562-.909-.19-.355-.596-1.143-.657-1.213h-.098c-.424.449-1.076 1.184-1.678 1.71-.819.715-1.544 1.17-1.475 1.18.851-.143 1.428-.582 2.07-1.143.22-.192.868-1.016 1.09-1.367.047.143.377 1.315.948 2.047.45.577 1.22 1.239 1.843 1.472.323.604 1.968 1.61 3.024 1.868.487.12.538-.062.447-.096" transform="translate(21.723 8) translate(74.338) translate(0 221.404)"/>
                        <path fill="#453133" d="M14.058 11.675c-.25-.531-.495-.919-.757-1.445-.253-.508-.462-1.144-.753-1.635.015-.577-.554-1.867-.75-2.842-.194-.966-.332-3.122-.548-3.254-.16-.1-.248.075-.334.225-.221.394-1.073 2.044-1.314 2.434-.047.075.04.133.112.111.68-.205.976-1.36 1.256-1.81.006.56.15 1.843.243 2.367.18 1.019.86 2.695 1.151 2.818.026 1.175.614 2.442 1.506 3.178.187.164.278.045.188-.147" transform="translate(21.723 8) translate(74.338) translate(0 221.404)"/>
                        <path fill="#FFFFFE" d="M7.747 2.573c-.692.045-.859.512-.918.653l.01.089c.134.133.314-.022.428-.106.198-.147.377-.314.536-.5.047-.055.014-.141-.056-.136M12.258 1.196c-.59-.092-1.934.517-2.213.767-.204.184-.126.275.067.184.358-.17 1.742-.714 2.113-.784.238-.046.34-.119.033-.167" transform="translate(21.723 8) translate(74.338) translate(0 221.404)"/>
                    </g>
                    <g>
                        <path fill="#F2E4DD" d="M2.094 6.556C2.1 7.994 4.243 8.493 6.882 7.67c2.64-.823 4.774-2.657 4.77-4.094-.005-1.439-2.149-1.938-4.788-1.115-2.639.823-4.775 2.656-4.77 4.095" transform="translate(21.723 8) translate(74.338) translate(53.692 199.991)"/>
                        <path fill="#3D2C2E" d="M6.073.002c-.047-.04-1.11.637-1.26.832C4.382.832 3.294.67 3.007.622c-.049-.01-.08.109 0 .147.771.375 1.436.278 1.832.202C5.15.928 5.846.455 6.03.202c.002.174.056.451.15.756.106.347.183.712.52.851.062.026-.517-1.717-.627-1.807" transform="translate(21.723 8) translate(74.338) translate(53.692 199.991)"/>
                        <path fill="#453133" d="M5.49 2.358c-.05-.154-.665-1.263-.775-1.589-.05-.146-.086-.113-.104-.098-.378.318-.678.57-1.054.892-.25.213-.782.65-.815.696-.371.131-.751.331-1.139.484-.296.117-.6.19-.887.284l-.022.082c.077.121.828-.037 1.158-.172.308-.126.74-.272.903-.59.436-.196.768-.3 1.146-.593.195-.15.57-.58.672-.796.067.566.375 1.363.892 1.495.054.014.042-.042.024-.095" transform="translate(21.723 8) translate(74.338) translate(53.692 199.991)"/>
                        <path fill="#453133" d="M4.59 3.288c-.181-.242-.413-.462-.626-.671-.2-.197-.414-.359-.695-.413-.027-.004-.06.155-.092.322-.178.959-1.146 1.706-1.275 2.09C1.29 5.122.747 5.793 0 6.09c.198.186 1.791-.309 1.972-1.356.474-.087 1.07-.593 1.296-1.027.152-.294.212-1.059.214-1.056.148.207.34.608.553.75.15.1.382.226.566.13.148-.077-.006-.266-.012-.242" transform="translate(21.723 8) translate(74.338) translate(53.692 199.991)"/>
                        <path fill="#764131" d="M9.937 2.152C9.925 1.57 9.712.93 9.243.602L9.13.596C8.858.593 8.594.63 8.34.696c.125.04.245.124.357.26.313.382.464.905.466 1.392 0 .415-.103.895-.375 1.227.207-.019.412-.054.612-.105.395-.29.55-.802.538-1.318M8.437 2.336c-.013-.599-.253-1.164-.827-1.378l-.066.03c-.542.254-1.075.535-1.602.819-.359.22.826 1.466 1.558 1.665.124.033.252.059.381.078.41-.242.567-.726.556-1.214M11.361 1.417c-.002-.122-.006-.248-.112-.33-.166-.127-.465-.169-.662-.227L10.384.8c.25.404.375.897.376 1.365 0 .205-.022.425-.072.638.397-.36.684-.845.673-1.387" transform="translate(21.723 8) translate(74.338) translate(53.692 199.991)"/>
                        <path fill="#663929" d="M8.696.957C8.584.82 8.464.737 8.34.696c-.249.063-.49.155-.729.262.574.214.814.78.827 1.378.011.488-.146.972-.556 1.214.295.044.601.053.906.025.272-.332.375-.812.375-1.227-.002-.487-.153-1.01-.466-1.391M10.384.801C10.01.698 9.629.62 9.243.601c.47.328.682.968.694 1.551.011.516-.143 1.028-.538 1.318.258-.067.507-.159.736-.279.195-.102.384-.233.553-.387.05-.213.072-.433.072-.638-.001-.468-.125-.96-.376-1.365M6.237 1.544l-.131-.03c.206.125.365.314.404.56.1.62-.79 1.212-1.326 1.24-.273.014-.56-.079-.731-.302l-.057-.088c-.006.051-.008.104-.008.156.006.75.765 1.296 1.438 1.28.748-.017 1.35-.596 1.51-1.307.162-.715-.437-1.348-1.099-1.51" transform="translate(21.723 8) translate(74.338) translate(53.692 199.991)"/>
                        <path fill="#764131" d="M5.184 3.314c.536-.028 1.425-.62 1.326-1.24-.04-.246-.198-.435-.404-.56-.284-.058-.688-.092-1.054.191-.294.227-.607.683-.656 1.219l.057.088c.17.223.458.316.731.302M5.56 3.928c-.224-.126-.485-.152-.648.006-.087-.13-.829-.393-.828.635 0 .236.196.496.436.526-.646.68-1.53 1.786-1.932 2.626.513-.466 1.97-2.267 2.139-2.363.085.06.334.017.36-.151.232.056.412-.012.592-.354.155-.295.112-.794-.12-.925" transform="translate(21.723 8) translate(74.338) translate(53.692 199.991)"/>
                        <path fill="#8C4F40" d="M5.343 4.04c-.19-.197-.596.055-.522.563.035.238.332.342.509.131.145-.172.176-.525.013-.694M4.582 3.986c-.07-.106-.5-.108-.422.5.02.158.17.367.307.163.1-.15.227-.491.115-.663" transform="translate(21.723 8) translate(74.338) translate(53.692 199.991)"/>
                        <path fill="#FFFFFE" d="M4.411 4.026l-.058-.023c-.16.083-.174.312-.119.428.028.059.068.045.074.034l.018-.081c0-.059.007-.113.029-.168.027-.066.07-.115.056-.19M5.102 4.078l-.058-.024c-.16.083-.173.313-.119.43.027.058.068.045.075.034l.016-.082c.002-.059.009-.112.03-.168.027-.067.07-.115.056-.19" transform="translate(21.723 8) translate(74.338) translate(53.692 199.991)"/>
                        <path fill="#985648" d="M4.968 2.834c-.037 0-.075-.01-.114-.036-.105-.068-.134-.204-.108-.32.07-.308.39-.658.715-.762.062-.02.13-.031.194-.031.142 0 .265.056.257.203-.024.415-.467.608-.693.816-.072.066-.159.13-.25.13M7.147 1.868c-.046 0-.089-.01-.125-.034-.334-.224.583-.692.782-.783.174.103.309.245.408.412-.18.062-.357.135-.535.209-.121.05-.353.196-.53.196M8.916 1.297c-.06-.121-.135-.236-.22-.34C8.654.905 8.61.86 8.566.823 8.754.791 8.972.77 9.22.77c.071 0 .145.002.222.006.117.125.212.272.287.433-.271.035-.544.052-.814.09" transform="translate(21.723 8) translate(74.338) translate(53.692 199.991)"/>
                        <path fill="#905243" d="M8.212 1.463c-.1-.167-.234-.309-.408-.412l.026-.012c.152-.064.396-.157.736-.216.044.038.088.082.13.134.085.104.16.219.22.34-.077.01-.154.023-.232.037-.162.031-.318.076-.472.13M9.73 1.208c-.075-.16-.17-.308-.287-.433.27.014.57.053.901.13l.03.073c-.115.204-.421.201-.626.227l-.018.003" transform="translate(21.723 8) translate(74.338) translate(53.692 199.991)"/>
                        <path fill="#522A21" d="M7.363 2.738l-.013-.001c-.074.348-.168.675-.389.961-.23.296-.521.436-.846.6l.017.04c.694-.12 1.276-.913 1.231-1.6" transform="translate(21.723 8) translate(74.338) translate(53.692 199.991)"/>
                        <path fill="#522A21" d="M6.814 3.11l-.024.01c.004.067.02.13.01.2-.01.06-.057.117-.053.177l.033.025c.066-.027.084-.121.091-.187.008-.077-.003-.167-.057-.225M7.006 2.756l-.014.005c-.017.06.008.13.003.192-.004.063-.052.132-.035.191l.032.014c.067-.028.073-.142.075-.205.003-.066-.002-.156-.06-.197M5.237 3.844l.001.008c.435-.009.56.403.486.763-.071.34-.286.564-.64.588l-.007.043c.423.09.696-.372.737-.73.036-.32-.167-.826-.577-.672M4.74 3.862c-.294-.228-.61.075-.654.372-.042.279-.014.86.404.812l.004-.03c-.32-.082-.368-.387-.349-.672.025-.355.232-.55.593-.477l.003-.005M11.35 1.431h-.01c-.058.308-.102.581-.266.857-.175.294-.43.545-.718.729-.603.384-1.263.433-1.945.558l.006.051c.724.003 1.557-.215 2.137-.655.442-.335.903-.95.795-1.54" transform="translate(21.723 8) translate(74.338) translate(53.692 199.991)"/>
                        <path fill="#453133" d="M5.899 3.068c-.208.004.103.42.175 1.537.054.812-.047 1.64.004 2.238-.172.948-.634 1.74-1.053 2.405l.047.08c.478-.05.86-.679 1.028-1.077.178-.422.249-.924.154-1.38.124-.097.18-.271.23-.422.106-.32.147-.66.142-.997-.01-.46-.267-1.265-.433-1.715.05.042.255.38.436.497.107.07.366.258.49.127.13-.138-.915-1.298-1.22-1.293" transform="translate(21.723 8) translate(74.338) translate(53.692 199.991)"/>
                        <path fill="#3D2C2E" d="M14.063 5.61c-.873-.332-1.92-.963-2.407-1.333-.438-.382-.855-.77-1.194-1.247-.15-.212-.286-.433-.409-.661-.138-.259-.433-.832-.478-.883h-.071c-.308.327-.783.862-1.22 1.244-.596.52-1.124.852-1.073.858.619-.104 1.039-.423 1.505-.83.16-.14.632-.74.794-.995.033.104.273.956.688 1.489.328.42.888.9 1.34 1.07.236.44 1.432 1.172 2.2 1.359.354.086.391-.045.325-.07" transform="translate(21.723 8) translate(74.338) translate(53.692 199.991)"/>
                        <path fill="#453133" d="M10.224 8.491c-.182-.386-.36-.668-.55-1.051-.184-.37-.337-.832-.548-1.189.01-.42-.403-1.358-.545-2.067-.142-.703-.242-2.27-.4-2.367-.116-.072-.18.055-.242.164-.16.287-.78 1.487-.955 1.77-.035.055.028.097.08.081.495-.15.71-.989.914-1.316.005.407.11 1.34.177 1.72.131.742.625 1.961.837 2.05.02.855.447 1.777 1.095 2.312.136.12.202.033.137-.107" transform="translate(21.723 8) translate(74.338) translate(53.692 199.991)"/>
                        <path fill="#FFFFFE" d="M5.634 1.871c-.503.033-.624.372-.668.475l.008.065c.098.096.228-.016.31-.077.145-.107.275-.229.391-.364.034-.04.01-.102-.04-.099M8.915.87c-.43-.067-1.407.376-1.61.558-.148.134-.09.2.05.133.26-.123 1.266-.519 1.536-.57.173-.033.247-.086.024-.121" transform="translate(21.723 8) translate(74.338) translate(53.692 199.991)"/>
                    </g>
                    <path fill="#DB3A2A" d="M112.914 146.435c-.943-.969-1.78-2.03-2.427-3.226-5.526-10.236-.084-18.856 6.803-29.772 1.595-2.526 3.243-5.137 4.883-7.955 3.19-5.478 5.927-17.289 4.354-21.86-.925-2.699-2.552-4.383-4.573-4.742-1.972-.353-4.036.605-5.686 2.62l.593.483c1.467-1.795 3.273-2.65 4.96-2.353 1.733.308 3.149 1.814 3.985 4.24 1.485 4.321-1.246 15.993-4.292 21.229-1.638 2.805-3.28 5.412-4.87 7.932-7.023 11.126-12.567 19.914-6.83 30.542.563 1.038 1.25 1.99 2.028 2.862h1.072" transform="translate(21.723 8) translate(74.338)"/>
                    <path fill="#4CAED3" d="M133.718 24.544c-3.175-1.55-10.11-.087-12.852 10.205-2.704 1.908-5.61 6.25-4.3 13.517-1.379 4.133-2.52 6.289-3.671 8.482.315.744 6.86 6.7 10.711 6.358 6.85-5.227 10.853-15.725 14.545-23.69 2.535-5.47 1.46-11.992-4.433-14.872" transform="translate(21.723 8) translate(74.338)"/>
                    <path fill="#39A2C0" d="M147.045 24.457s3.663.53 3.894 2.75c.231 2.22-1.684 4.243-2.812 3.954-1.129-.288-1.082-6.704-1.082-6.704" transform="translate(21.723 8) translate(74.338)"/>
                    <path fill="#362727" d="M120.19 157.67l.064.423c.49 3.196-.974 4.547-2.86 5.842-1.888 1.292-6.865 3.938-7.202 7.654-.334 3.715 1.394 5.326 6.373 6.629 2.714.71 5.79-1.017 8.196-3.036 2.602-2.182 5.41-5.865 5.417-7.214 3.88-1.406 3.96-3.612 2.425-9.495-3.672 2.26-8.612 1.777-12.413-.803M162.342 172.713c-3.653 2.082-8.187 2.71-11.646.75.027.61.025 1.202-.052 1.744-.412 2.891-2.982 7.807-4.877 11.05-1.679 2.876-.961 7.046 2.072 9.06 2.229 1.48 8.52 2.239 10.6-1.543 2.077-3.783 2.73-7.334 2.76-10.515 1.611-1.913 1.611-1.913 2.145-2.927 1.473-2.798-.543-5.423-.983-7.385l-.02-.234" transform="translate(21.723 8) translate(74.338)"/>
                    <path fill="#39A2C0" d="M116.684 127.872c-.17-3.612-.145-8.312-.011-11.936.127-3.394-1.697-30.8 11.116-38.773.213-.265 12.265 1.408 16.3 1.755.582.05 1.042.556 1.137 1.108 2.3 13.337 2.128 28.167-4.979 40.142-1.578 2.66-3.24 4.515-5.586 6.442 2.216 3.85 1.948 12.314 1.486 18.587-.394 5.35-1.563 11.061-2.613 13.465-2.472 5.65-9.39 5.614-12.93 2.668-1.624-1.353-4.039-4.956-1.275-11.561-2.764-6.378-2.53-19.481-2.645-21.897" transform="translate(21.723 8) translate(74.338)"/>
                    <path fill="#5CC3E0" d="M137.151 98.596c-4.299-2.957-5.684-8.456-5.015-18.667 3.567-5.298 18.794-1.361 24.385-1.324 5.112 4.003 3.922 10.82 2.592 17.577 1.407 6.06 4.546 15.127 5.625 24.629.27 2.382.526 7.751-1.813 9.923 3.18 7.152 5.595 35.582 2.004 41.138-1.464 2.265-6.656 4.495-9.927 3.598-1.088-.302-5.604-.548-7.134-5.63-.847-2.814-.714-10.264-1.326-18.928-.424-6.019-1.876-13.017-1.484-17.819-1.793-2.836-3.485-4.52-4.183-7.79-1.807-8.466-2.448-18.177-3.724-26.707" transform="translate(21.723 8) translate(74.338)"/>
                    <path fill="#39A2C0" d="M159.088 81.742l.755 2s-3.3 4.182-10.842 5.188c-7.542 1.006-14.454-.23-17.627-1.495-3.173-1.267-4.442-4.52-4.442-4.52s17.464 2.965 22.069 1.67c4.605-1.294 10.087-2.843 10.087-2.843" transform="translate(21.723 8) translate(74.338)"/>
                    <path fill="#5CC3E0" d="M125.52 76.583c-1.839-3.11-.652-14.767.395-19.835-2.257-8.392-3.121-14.567-1.394-21.364 1.075-4.238 4.95-9.107 10.174-9.375 2.549-.13 11.167 3.44 12.79 4.333 6.692 1.891 10.674 5.076 15.179 10.023.558.614-1.702 20.317-2.821 24.01-1.306 4.305-.576 10.895-1.573 14.915 2.337 1.303 1.12 3.23-.038 4.481-4.193 2.971-11.81 4.076-15.332 3.62-7.26-.938-14.324-1.621-18.92-7.224-.81-.989 0-3.385 1.54-3.584" transform="translate(21.723 8) translate(74.338)"/>
                    <path fill="#F1B19C" d="M136.01 24.043c1.5.303 4.028.78 5.524.489 1.983-.386 4.224-1.364 5.865-2.834.141 2.06.805 7.3 1.747 9.372 1.827 4.027-8.47 5.362-11.55 5.483-.792-1.149-2.999-2.535-2.97-5.364.943-3.367 1.05-5.574 1.385-7.146" transform="translate(21.723 8) translate(74.338)"/>
                    <path fill="#F4C3AE" d="M131.248 13.857c.446-2.848 1.477-6.374 3.916-8.166 2.413-1.771 6.184-1.547 8.992-1.03 4.356.806 6.894 5.997 5.48 11.509-1.306 5.09-5.677 12.667-11.585 13.092-3.007.218-5.04-2.243-6.065-5.218-1.217-3.526-1.106-7.837-.738-10.187" transform="translate(21.723 8) translate(74.338)"/>
                    <path fill="#39A2C0" d="M131.952 7.578c-.052 0-2.642 1.243-4.74 1.09-2.813-.204-3.11-2.834-3.11-2.834s3.47-.988 5.563-.701c2.09.287 2.287 2.445 2.287 2.445" transform="translate(21.723 8) translate(74.338)"/>
                    <path fill="#362727" d="M151.093 17.338s.324.204-.601 2.304c-.924 2.1-2.783 4.956-2.783 4.956s-1.309-.912-1.167-3.898c.141-2.985 1.167-4.566 1.167-4.566s-3.045.57-6.361-1.943c-3.318-2.515-3.751-4.385-3.751-4.385s-2.569 3.685-6.044 3.496c-3.476-.187-7.009-5.235-3.528-6.376 3.483-1.138 11.413-.044 11.413-.044s11.88 6.483 11.655 10.456" transform="translate(21.723 8) translate(74.338)"/>
                    <path fill="#5CC3E0" d="M151.147 18.28c-2.647-5.94-12.451-12.742-19.745-12.305l.106-.187c3.875-6.04 7.996-7.386 16.193-3.881 8.196 3.506 6.055 10.624 5.624 11.48-.108.213-.985 3.395-2.178 4.894" transform="translate(21.723 8) translate(74.338)"/>
                    <path fill="#4CAED3" d="M146.67 12.533s-2.348-4.083-8.071-6.706c-7.197-3.301-14.497.007-14.497.007s5.258.862 7.406 3.226c2.15 2.365 3.395 4.251 7.617 4.324 5.036.084 7.546-.851 7.546-.851M138.99 37.108s-1.392 2.898-2.041 9.465c-.652 6.567-1.38 15.093-.686 20.037.462 3.287-.86 9.274-1.637 11.995-.779 2.722 0 6.412 0 7.497-1.643 0-4.04-1.224-4.04-1.224s-.313-5.664.788-8.634c1.102-2.967 1.632-10.092 1.31-12.251-.709-4.717.868-12.797 1.376-17.42.566-5.129.777-11.105 1.754-11.189 1.23.397 3.177 1.724 3.177 1.724" transform="translate(21.723 8) translate(74.338)"/>
                    <path fill="#4CAED3" d="M137.597 36.553s-.417-1.929 2.308-3.45c.954-.533 2.66-.743 4.403-1.179 4.691-1.175 6.631-4.718 6.631-4.718l.412 3.97s-.174 2.972-4.292 5.202c-4.118 2.23-9.462.175-9.462.175" transform="translate(21.723 8) translate(74.338)"/>
                    <path fill="#4CAED3" d="M135.193 28.448c.324 1.007.76 2.27 1.25 3.434.665 1.577 1.154 4.671 1.154 4.671s-2.595-1.293-3.678-3.306c-.74-1.378-.14-3.962.315-5.473.32.278.653.508.959.674M156.521 78.605s-3.407 2.099-6.479 2.816c-3.07.72-5.578 0-5.578 0s1.87-.194 5.578-1.247c3.709-1.053 6.48-1.569 6.48-1.569M155.56 76.389s-2.799 1.533-6.56.551c-3.76-.983-5.825-2.996-5.825-2.996s4.745 1.528 6.867 1.915c2.121.385 5.518.53 5.518.53M162.751 123.989c-.49.432-.635 2.587-2.22 4.745-1.586 2.157-2.96 3.02-2.96 3.02s-.148-2.819 2.272-4.746c2.418-1.927 2.908-3.02 2.908-3.02M157.29 133.336s2.873.947 3.645 2.378c.773 1.433 1.458 2.886 1.458 2.886s-1.684.4-2.969-1.617c-1.285-2.015-2.133-3.647-2.133-3.647" transform="translate(21.723 8) translate(74.338)"/>
                    <path fill="#362727" d="M155.614 124.817v40.706c0 2.932 4.234 5.309 9.459 5.309 5.226 0 9.462-2.377 9.462-5.309v-40.706h-18.921" transform="translate(21.723 8) translate(74.338)"/>
                    <path fill="#DD4937" d="M165.073 137.106c-5.225 0-9.46-2.377-9.46-5.309v26.4c0 2.931 4.235 5.308 9.46 5.308 5.226 0 9.462-2.377 9.462-5.309v-26.399c0 2.932-4.236 5.31-9.462 5.31" transform="translate(21.723 8) translate(74.338)"/>
                    <path fill="#FFFFFE" d="M172.038 157.311c-1.729 1.058-4.206 1.726-6.965 1.726-5.225 0-9.46-2.377-9.46-5.309v1.322c0 2.934 4.235 5.31 9.46 5.31 2.76 0 5.236-.666 6.965-1.725v-1.324M172.038 138.73c-1.729 1.056-4.206 1.724-6.965 1.724-5.225 0-9.46-2.377-9.46-5.307v1.324c0 2.932 4.235 5.309 9.46 5.309 2.76 0 5.236-.668 6.965-1.726v-1.324" transform="translate(21.723 8) translate(74.338)"/>
                    <path fill="#453133" d="M174.535 124.817c0 2.93-4.236 5.307-9.462 5.307-5.225 0-9.46-2.377-9.46-5.307 0-2.932 4.235-5.309 9.46-5.309 5.226 0 9.462 2.377 9.462 5.309" transform="translate(21.723 8) translate(74.338)"/>
                    <path fill="#362727" d="M158.572 119.508v4.247c0 2.022 2.92 3.662 6.524 3.662 3.603 0 6.524-1.64 6.524-3.662v-4.247h-13.048" transform="translate(21.723 8) translate(74.338)"/>
                    <path fill="#453133" d="M171.62 119.508c0 2.022-2.921 3.66-6.524 3.66-3.605 0-6.524-1.638-6.524-3.66 0-2.022 2.92-3.662 6.524-3.662 3.603 0 6.524 1.64 6.524 3.662" transform="translate(21.723 8) translate(74.338)"/>
                    <path fill="#DD4937" d="M163.582 113.034v6.274c0 .453.653.82 1.458.82.806 0 1.457-.367 1.457-.82v-4.484l-2.915-1.79" transform="translate(21.723 8) translate(74.338)"/>
                    <path fill="#DD4937" d="M167.645 114.142c.332.193.957.471 1.417.204.487-.282.79-1.114.79-2.177 0-2.49-1.545-5.479-3.373-6.531l-3.975-2.288c-.33-.19-.955-.471-1.419-.203-.487.28-.79 1.115-.79 2.178 0 2.488 1.545 5.477 3.375 6.53l3.975 2.287zm.982 2.643c-.693 0-1.421-.209-2.148-.628l-3.975-2.29c-2.546-1.463-4.54-5.217-4.54-8.542 0-1.948.714-3.476 1.956-4.191 1.094-.634 2.427-.562 3.75.203l3.975 2.288c2.545 1.465 4.538 5.218 4.538 8.544 0 1.948-.71 3.474-1.956 4.191-.492.284-1.034.425-1.6.425z" transform="translate(21.723 8) translate(74.338)"/>
                    <path fill="#362727" d="M164.915 151.151c-.315-.215-.592-.61-.74-.849.05-.175-.012-.351-.142-.373l-.392.02-.02-.116c-.07-.396-.164-.771-.265-1.107l.204-.103c.18.27.478.687.793.994.507.49 1.142.516 1.158.264.013-.214-.592-.321-1.061-.644-.315-.216-.59-.609-.74-.846.049-.177-.012-.353-.14-.373-.083-.014-.271.004-.441.023-.149-.405-.267-.662-.276-.681l.006-.002s-.025-.188-.102-.441c-.054-.184-.134-.402-.25-.609.083-.08.209-.182.375-.267.324-.164.746-.42.918-.85.16-.401.27-.924.276-1.17.009-.368-.215-.377-.215-.04 0 .39-.21 1.09-.467 1.337-.388.371-.98.544-1.196.578-.163-.16-.363-.282-.612-.324l-.4.007-.19.075c-.262-.152-.765-.502-1.106-.953-.26-.338-.468-1.112-.468-1.497 0-.341-.223-.41-.216-.04.005.25.116.81.276 1.267.171.491.592.894.918 1.173l.306.312c-.29.407-.306 1.008-.306 1.008s-.126.227-.283.601c-.18-.085-.397-.183-.487-.201-.13-.025-.19.13-.141.325-.149.183-.424.481-.74.587-.47.157-1.073.05-1.063.267.017.26.654.457 1.158.145.317-.195.616-.509.793-.716l.253.206c-.099.294-.192.63-.26.993l-.02.124c-.171-.08-.361-.166-.443-.18-.133-.026-.192.13-.142.322-.15.186-.426.484-.74.587-.47.157-1.075.052-1.062.27.014.259.651.457 1.156.144.317-.196.616-.508.795-.717l.25.207.084.038c-.035.303-.06.596-.073.874l-.002-.002.002.014v.008c-.183-.017-.388-.029-.469-.013-.122.025-.12.205-.01.377-.063.24-.2.642-.437.867-.355.333-.918.458-.83.67.105.252.728.206 1.057-.297.208-.314.356-.74.44-1.016l.242.099c.007.38.032.735.068 1.061 0 0-.002.191.066.484.056.339.118.646.179.924.06.277.227.698.476 1.105.33.535.802 1.047 1.37 1.177v.002l.014.004.026.003.024.006.014.002v-.002c1.002.121 1.706-1.04 1.847-1.635.066-.28.136-.594.192-.95.059-.25.059-.426.059-.426v.002c.034-.301.055-.63.062-.988l.188-.018c.082.305.231.781.439 1.169.33.62.954.885 1.06.67.085-.181-.479-.504-.831-.965-.238-.307-.374-.756-.439-1.019l-.01-.38c-.07-.04-.244-.09-.41-.135l.001-.029-.005.014c-.014-.29-.038-.601-.077-.928l.034-.003.249-.118c.18.271.48.69.795.996.506.489 1.141.517 1.156.262.014-.212-.59-.32-1.06-.64" transform="translate(21.723 8) translate(74.338)"/>
                    <path fill="#FFFFFE" d="M165.69 155.504c-2.787 1.773-6.12-.202-7.692-2.516l-.01-.015c2.526-1.879 5.222-3.908 7.407-6.167.277.293.553.595.814.962 1.58 2.2 2.187 6.014-.519 7.736zm-8.566-9.68c.897-1.307 3.138-1.498 4.2-1.234 1.537.384 2.671.93 3.66 1.818-2.555 1.804-4.966 3.964-7.339 5.976-1.002-1.871-1.648-4.912-.52-6.56zm10.263 2.374c-.267-.487-.614-.954-1.019-1.392-.195-.212-.894-.84-.95-.883-1.783-1.454-4.211-2.345-6.472-1.9-3.078.6-3.694 3.627-2.718 7.077 1.002 3.544 4.778 6.93 8.913 5.48 3.58-1.258 3.797-5.555 2.246-8.382z" transform="translate(21.723 8) translate(74.338)"/>
                    <path fill="#DB3A2A" d="M173.783 156.446h-.168c-.052.316-.041.64-.072.96-.039.4-.127.787-.205 1.183-.047.216.273.307.334.091.188-.675.305-1.554.111-2.234M172.718 158.248l-.166.023c.005.414.007.828-.086 1.235-.07.307-.258.587-.206.903l.194.079c.302-.19.343-.598.388-.93.059-.448.034-.887-.124-1.31M171.269 160.316c-.238.138-.442.318-.695.436-.254.116-.58.205-.857.228l-.043.159c.356.155.673.184 1.05.045.326-.122.654-.36.758-.704l-.213-.164M172.745 135.846c-.304.115-.544.348-.825.51-.33.188-.698.317-1.049.454l.025.202c.679.057 1.745-.327 1.987-1.03l-.138-.136M173.672 135.934l-.13.018c-.075.357-.113.71-.253 1.054-.13.316-.399.571-.492.892l.211.211c.707-.293.94-1.533.664-2.175M173.112 143.93c-.059-.327-.154-.74-.404-.973l-.088.034c-.041.33.075.687.116 1.016.041.34-.012.704.074 1.036.043.166.257.14.31 0 .128-.337.051-.763-.008-1.113M173.468 150.746l-.046.006c-.197.155-.154.556-.23.79-.103.336-.32.603-.443.926l.23.177c.332-.207.51-.632.59-1 .053-.238.159-.754-.1-.899M158.853 160.282c-.365-.232-.805-.303-1.176-.526-.363-.216-.565-.526-.77-.883l-.108.014c-.19.972 1.177 1.683 1.977 1.68l.077-.285M157.89 136.389c-.39-.097-.719-.196-.98-.528-.22-.279-.367-.6-.602-.868l-.087.036c.025.753.778 2.016 1.7 1.604l-.03-.244M160.367 137.765c-.304-.175-.64-.236-.916-.47-.236-.198-.383-.496-.625-.678l-.107.045c-.073.364.25.756.512.972.295.248.702.488 1.1.4l.036-.27M172.122 111.13l-.087.013c.138 1.35-.092 2.717-.874 3.856-.701 1.02-1.908 1.913-3.218 1.572-.751-.196-1.553-.725-2.239-1.078-1.4-.724-2.775-1.515-3.97-2.55-1.141-.988-1.887-2.141-2.657-3.415l-.24.101c1.115 3.48 5.611 6.066 8.825 7.224 3.147 1.135 5.167-3.24 4.46-5.723M164.002 104.19c-.75-.65-2.512-1.868-3.363-.761-.902 1.172-.511 3.204.106 4.393l.068-.027c-.199-1.313-.67-2.47-.1-3.787.671-1.557 2.226-.173 3.277.204l.012-.022" transform="translate(21.723 8) translate(74.338)"/>
                    <path fill="#EDDAD0" d="M162.442 98.45s-.643 3.144-1.482 4.827c-.934 1.868-2.083 3.792-1.144 5.382 1.78 3.02 2.71 2.362 4.392 3.19 3.818 1.88 5.665-.255 5.665-.255s2.115-3.892 2.124-5.364c.01-1.993-1.22-4.513-2.98-6.356-3.057-3.203-6.575-1.424-6.575-1.424" transform="translate(21.723 8) translate(74.338)"/>
                    <path fill="#4CAED3" d="M163.795 78.605c-1.547 4.328-2.284 17.707-2.284 22.32 0 2.097 6.517 4.573 9.815 2.414 4.412-11.18 3.125-15.849 2.346-24.479 1.396-5.037.825-10.988-1.027-14.525.132-7.186-1.102-15.89-4.585-22.064-1.353-2.397-7.09-7.988-10.77-6.831-11.453 3.599-6.183 27.576 3.298 30.954-.428 4.615-.428 9.283 3.207 12.211" transform="translate(21.723 8) translate(74.338)"/>
                    <path fill="#362727" d="M117.237 81.077c-.494-.698-1.316-.966-1.84-.6L82.856 109.92l1.779 2.526 32.54-29.44c.525-.367.552-1.229.062-1.928" transform="translate(21.723 8) translate(74.338)"/>
                    <path fill="#604348" d="M84.694 110.518c.492.698.465 1.561-.06 1.927-.524.368-1.347.1-1.837-.6-.492-.695-.466-1.56.059-1.926.524-.368 1.347-.099 1.838.6" transform="translate(21.723 8) translate(74.338)"/>
                    <path fill="#C4A2A6" d="M84.103 110.984c.245.35.233.78-.028.965-.264.182-.675.048-.922-.3-.245-.35-.233-.783.03-.965.263-.184.673-.048.92.3" transform="translate(21.723 8) translate(74.338)"/>
                    <path fill="#EDDAD0" d="M113.244 83.35s-2.835-1.982-4.745-2.509c-1.911-.524-3.823 0-3.823 0s-3.912 5.37-4.154 7.423c-.241 2.054 2.524 3.564 2.524 3.564l3.978-3.564s.439 2.88-.596 4.247c-.517.684-.143 1.608.518 1.746.66.137 2.12-1.198 3.207-2.43 2.169-2.462 3.09-8.477 3.09-8.477" transform="translate(21.723 8) translate(74.338)"/>
                    <path fill="#4CAED3" d="M116.565 52.972s-2.14 1.074-3.67 3.776c-1.529 2.701-5.735 10.685-6.882 15.531-1.145 4.849-1.586 6.05-1.54 8.848 1.733-.52 5.361.235 8.545 3.424 3.472-2.288 7.071-7.76 8.825-13.096 1.754-5.335 3.276-9.627 3.276-9.627l-8.554-8.856" transform="translate(21.723 8) translate(74.338)"/>
                    <path fill="#C4A2A6" d="M83.183 110.684c-.615.543-15.075 13.205-17.353 15.384-2.404 2.294-4.136 11.408-4.328 12.439-.04.2.256.434.664.52.41.087.777-.008.818-.21.494-2.667 2.17-9.992 3.904-11.65 2.255-2.154 17.11-15.164 17.26-15.295l-.965-1.188" transform="translate(21.723 8) translate(74.338)"/>
                    <path fill="#DB3A2A" d="M156.568 123.086c-3.288-.41-9.831 4.873-12.058 13.767-2.045 8.176-8.087 13.66-16.16 14.67-7.493.94-14.67-2.406-17.863-8.314-4.347-8.053-1.895-15.11 2.698-23.07h-.883c-4.576 8.008-6.951 15.165-2.487 23.434 2.967 5.494 9.208 8.867 16.037 8.867.856 0 1.724-.054 2.594-.163 8.397-1.047 14.68-6.747 16.805-15.24 2.055-8.2 8.133-13.567 11.226-13.195 1.367.17 1.655 1.494 1.655 2.575 0 0 .09.263.378.263.386 0 .386-.263.386-.263 0-1.936-.848-3.15-2.328-3.331" transform="translate(21.723 8) translate(74.338)"/>
                    <path stroke="#F7B500" stroke-dasharray="0 3.6" stroke-linecap="round" stroke-width="1.4" d="M60.851 139.059c-23.622 12.272-39.67 29.392-48.142 51.36M62.37 137.779c-17.643 19.897-26.47 41.614-26.485 65.15M60.431 141.584c-21.68 15.43-35.18 34.61-40.504 57.54M61.84 139.213c-12.702 23.344-16.404 46.484-11.106 69.42M61.639 140.604c-7.556 25.467-6.351 48.87 3.613 70.207" transform="translate(21.723 8) translate(74.338)"/>
                </g>
            </g>
        </g>
    </g>
</svg>
