<svg xmlns="http://www.w3.org/2000/svg" version="1.1" xmlns:xlink="http://www.w3.org/1999/xlink" xmlns:svgjs="http://svgjs.com/svgjs" width="1440" height="560" preserveAspectRatio="none" viewBox="0 0 1440 560"><g mask="url(&quot;#SvgjsMask1162&quot;)" fill="none"><rect width="1440" height="560" x="0" y="0" fill="url(#SvgjsLinearGradient1163)"></rect><path d="M726 534L888 696" stroke-width="6" stroke="url(#SvgjsLinearGradient1164)" stroke-linecap="round" class="BottomRight"></path><path d="M816 511L1053 748" stroke-width="6" stroke="url(#SvgjsLinearGradient1164)" stroke-linecap="round" class="BottomRight"></path><path d="M1298 110L880 -308" stroke-width="6" stroke="url(#SvgjsLinearGradient1165)" stroke-linecap="round" class="TopLeft"></path><path d="M308 435L54 181" stroke-width="8" stroke="url(#SvgjsLinearGradient1165)" stroke-linecap="round" class="TopLeft"></path><path d="M1382 69L1186 -127" stroke-width="6" stroke="url(#SvgjsLinearGradient1165)" stroke-linecap="round" class="TopLeft"></path><path d="M413 176L748 511" stroke-width="8" stroke="url(#SvgjsLinearGradient1165)" stroke-linecap="round" class="TopLeft"></path><path d="M1240 205L1612 577" stroke-width="10" stroke="url(#SvgjsLinearGradient1165)" stroke-linecap="round" class="TopLeft"></path><path d="M632 364L914 646" stroke-width="6" stroke="url(#SvgjsLinearGradient1165)" stroke-linecap="round" class="TopLeft"></path><path d="M1212 477L1451 716" stroke-width="6" stroke="url(#SvgjsLinearGradient1164)" stroke-linecap="round" class="BottomRight"></path><path d="M1051 228L648 -175" stroke-width="6" stroke="url(#SvgjsLinearGradient1164)" stroke-linecap="round" class="BottomRight"></path><path d="M621 504L393 276" stroke-width="8" stroke="url(#SvgjsLinearGradient1164)" stroke-linecap="round" class="BottomRight"></path><path d="M1033 276L1403 646" stroke-width="10" stroke="url(#SvgjsLinearGradient1165)" stroke-linecap="round" class="TopLeft"></path><path d="M814 289L545 20" stroke-width="10" stroke="url(#SvgjsLinearGradient1164)" stroke-linecap="round" class="BottomRight"></path><path d="M1369 515L1571 717" stroke-width="6" stroke="url(#SvgjsLinearGradient1164)" stroke-linecap="round" class="BottomRight"></path><path d="M483 545L811 873" stroke-width="6" stroke="url(#SvgjsLinearGradient1165)" stroke-linecap="round" class="TopLeft"></path><path d="M1156 31L873 -252" stroke-width="8" stroke="url(#SvgjsLinearGradient1165)" stroke-linecap="round" class="TopLeft"></path><path d="M854 451L1132 729" stroke-width="10" stroke="url(#SvgjsLinearGradient1165)" stroke-linecap="round" class="TopLeft"></path><path d="M866 513L580 227" stroke-width="6" stroke="url(#SvgjsLinearGradient1164)" stroke-linecap="round" class="BottomRight"></path><path d="M558 74L960 476" stroke-width="6" stroke="url(#SvgjsLinearGradient1164)" stroke-linecap="round" class="BottomRight"></path><path d="M845 350L643 148" stroke-width="6" stroke="url(#SvgjsLinearGradient1165)" stroke-linecap="round" class="TopLeft"></path><path d="M1102 513L822 233" stroke-width="6" stroke="url(#SvgjsLinearGradient1164)" stroke-linecap="round" class="BottomRight"></path><path d="M1117 395L941 219" stroke-width="8" stroke="url(#SvgjsLinearGradient1165)" stroke-linecap="round" class="TopLeft"></path><path d="M958 171L539 -248" stroke-width="8" stroke="url(#SvgjsLinearGradient1164)" stroke-linecap="round" class="BottomRight"></path><path d="M781 1L541 -239" stroke-width="10" stroke="url(#SvgjsLinearGradient1164)" stroke-linecap="round" class="BottomRight"></path><path d="M496 260L134 -102" stroke-width="8" stroke="url(#SvgjsLinearGradient1164)" stroke-linecap="round" class="BottomRight"></path><path d="M868 170L687 -11" stroke-width="6" stroke="url(#SvgjsLinearGradient1164)" stroke-linecap="round" class="BottomRight"></path><path d="M856 325L495 -36" stroke-width="10" stroke="url(#SvgjsLinearGradient1165)" stroke-linecap="round" class="TopLeft"></path><path d="M579 420L923 764" stroke-width="8" stroke="url(#SvgjsLinearGradient1164)" stroke-linecap="round" class="BottomRight"></path><path d="M323 139L708 524" stroke-width="10" stroke="url(#SvgjsLinearGradient1165)" stroke-linecap="round" class="TopLeft"></path><path d="M1162 377L1497 712" stroke-width="8" stroke="url(#SvgjsLinearGradient1165)" stroke-linecap="round" class="TopLeft"></path><path d="M667 465L907 705" stroke-width="6" stroke="url(#SvgjsLinearGradient1164)" stroke-linecap="round" class="BottomRight"></path><path d="M1087 389L1256 558" stroke-width="8" stroke="url(#SvgjsLinearGradient1164)" stroke-linecap="round" class="BottomRight"></path><path d="M465 368L877 780" stroke-width="6" stroke="url(#SvgjsLinearGradient1165)" stroke-linecap="round" class="TopLeft"></path><path d="M682 252L474 44" stroke-width="10" stroke="url(#SvgjsLinearGradient1165)" stroke-linecap="round" class="TopLeft"></path><path d="M716 55L298 -363" stroke-width="10" stroke="url(#SvgjsLinearGradient1164)" stroke-linecap="round" class="BottomRight"></path><path d="M325 87L-9 -247" stroke-width="8" stroke="url(#SvgjsLinearGradient1164)" stroke-linecap="round" class="BottomRight"></path><path d="M532 426L910 804" stroke-width="8" stroke="url(#SvgjsLinearGradient1164)" stroke-linecap="round" class="BottomRight"></path><path d="M144 49L475 380" stroke-width="6" stroke="url(#SvgjsLinearGradient1164)" stroke-linecap="round" class="BottomRight"></path><path d="M1182 542L1472 832" stroke-width="8" stroke="url(#SvgjsLinearGradient1165)" stroke-linecap="round" class="TopLeft"></path></g><defs><mask id="SvgjsMask1162"><rect width="1440" height="560" fill="#ffffff"></rect></mask><linearGradient x1="0%" y1="50%" x2="100%" y2="50%" gradientUnits="userSpaceOnUse" id="SvgjsLinearGradient1163"><stop stop-color="#0e2a47" offset="0"></stop><stop stop-color="rgba(2, 35, 77, 1)" offset="1"></stop></linearGradient><linearGradient x1="0%" y1="0%" x2="100%" y2="100%" id="SvgjsLinearGradient1164"><stop stop-color="rgba(3, 56, 106, 0)" offset="0"></stop><stop stop-color="rgba(3, 56, 106, 1)" offset="1"></stop></linearGradient><linearGradient x1="100%" y1="100%" x2="0%" y2="0%" id="SvgjsLinearGradient1165"><stop stop-color="rgba(3, 56, 106, 0)" offset="0"></stop><stop stop-color="rgba(3, 56, 106, 1)" offset="1"></stop></linearGradient></defs></svg>